<svg xmlns="http://www.w3.org/2000/svg" version="1.1" xmlns:xlink="http://www.w3.org/1999/xlink" xmlns:svgjs="http://svgjs.dev/svgjs" width="1500" height="1500" viewBox="0 0 1500 1500"><rect width="1500" height="1500" fill="#000000"></rect><g transform="matrix(0.6666666666666666,0,0,0.6666666666666666,249.39393939393938,438.5856950067478)"><svg viewBox="0 0 396 247" data-background-color="#222222" preserveAspectRatio="xMidYMid meet" height="935" width="1500" xmlns="http://www.w3.org/2000/svg" xmlns:xlink="http://www.w3.org/1999/xlink"><g id="tight-bounds" transform="matrix(1,0,0,1,0.2400000000000091,-0.09999999999999432)"><svg viewBox="0 0 395.52 247.2" height="247.2" width="395.52"><g><svg></svg></g><g><svg viewBox="0 0 395.52 247.2" height="247.2" width="395.52"><g transform="matrix(1,0,0,1,75.54432,78.5479454117647)"><svg viewBox="0 0 244.43135999999998 90.10410917647059" height="90.10410917647059" width="244.43135999999998"><g><svg viewBox="0 0 244.43135999999998 90.10410917647059" height="90.10410917647059" width="244.43135999999998"><g><svg viewBox="0 0 244.43135999999998 90.10410917647059" height="90.10410917647059" width="244.43135999999998"><g><svg viewBox="0 0 244.43135999999998 90.10410917647059" height="90.10410917647059" width="244.43135999999998"><g id="textblocktransform"><svg viewBox="0 0 244.43135999999998 90.10410917647059" height="90.10410917647059" width="244.43135999999998" id="textblock"><g><svg viewBox="0 0 244.43135999999998 90.10410917647059" height="90.10410917647059" width="244.43135999999998"><g transform="matrix(1,0,0,1,0,0)"><svg width="244.43135999999998" viewBox="1.1 -36 127.49000000000001 47" height="90.10410917647059" data-palette-color="#ffffff"><path d="M19.15 0L14.25 0 1.1-35 5.65-35 16.7-4.45 27.85-35 32.3-35 19.15 0ZM44.9 0.6L44.9 0.6Q41.4 0.6 38.6-1 35.8-2.6 34.17-5.53 32.55-8.45 32.55-12.4L32.55-12.4Q32.55-16.35 34.2-19.28 35.85-22.2 38.67-23.8 41.5-25.4 45-25.4L45-25.4Q48.5-25.4 51.3-23.8 54.1-22.2 55.72-19.28 57.35-16.35 57.35-12.4L57.35-12.4Q57.35-8.45 55.7-5.53 54.05-2.6 51.22-1 48.4 0.6 44.9 0.6ZM44.9-3L44.9-3Q47.05-3 48.9-4.05 50.75-5.1 51.9-7.2 53.05-9.3 53.05-12.4L53.05-12.4Q53.05-15.5 51.92-17.6 50.8-19.7 48.95-20.75 47.1-21.8 45-21.8L45-21.8Q42.85-21.8 41-20.75 39.15-19.7 38-17.6 36.85-15.5 36.85-12.4L36.85-12.4Q36.85-9.3 38-7.2 39.15-5.1 40.97-4.05 42.8-3 44.9-3ZM67.4 0L63.2 0 63.2-36 67.4-36 67.4 0ZM78.49 11L74.29 11 74.29-24.8 78.09-24.8 78.49-20.7Q79.69-22.5 81.92-23.95 84.14-25.4 87.59-25.4L87.59-25.4Q91.29-25.4 94.04-23.7 96.79-22 98.32-19.05 99.84-16.1 99.84-12.35L99.84-12.35Q99.84-8.6 98.32-5.68 96.79-2.75 94.02-1.07 91.24 0.6 87.54 0.6L87.54 0.6Q84.49 0.6 82.12-0.65 79.74-1.9 78.49-4.15L78.49-4.15 78.49 11ZM87.09-3.05L87.09-3.05Q89.59-3.05 91.49-4.23 93.39-5.4 94.49-7.5 95.59-9.6 95.59-12.4L95.59-12.4Q95.59-15.2 94.49-17.3 93.39-19.4 91.49-20.58 89.59-21.75 87.09-21.75L87.09-21.75Q84.59-21.75 82.69-20.58 80.79-19.4 79.69-17.3 78.59-15.2 78.59-12.4L78.59-12.4Q78.59-9.6 79.69-7.5 80.79-5.4 82.69-4.23 84.59-3.05 87.09-3.05ZM116.84 0.6L116.84 0.6Q113.29 0.6 110.54-1.03 107.79-2.65 106.22-5.55 104.64-8.45 104.64-12.4L104.64-12.4Q104.64-16.3 106.19-19.23 107.74-22.15 110.52-23.78 113.29-25.4 116.94-25.4L116.94-25.4Q120.54-25.4 123.17-23.78 125.79-22.15 127.19-19.5 128.59-16.85 128.59-13.8L128.59-13.8Q128.59-13.25 128.56-12.7 128.54-12.15 128.54-11.45L128.54-11.45 108.79-11.45Q108.94-8.6 110.12-6.73 111.29-4.85 113.07-3.9 114.84-2.95 116.84-2.95L116.84-2.95Q119.44-2.95 121.19-4.15 122.94-5.35 123.74-7.4L123.74-7.4 127.89-7.4Q126.89-3.95 124.07-1.68 121.24 0.6 116.84 0.6ZM116.84-21.85L116.84-21.85Q113.84-21.85 111.52-20.03 109.19-18.2 108.84-14.7L108.84-14.7 124.44-14.7Q124.29-18.05 122.14-19.95 119.99-21.85 116.84-21.85Z" opacity="1" transform="matrix(1,0,0,1,0,0)" fill="#ffffff" class="wordmark-text-0" data-fill-palette-color="primary" id="text-0"></path></svg></g></svg></g></svg></g></svg></g></svg></g></svg></g></svg></g><g><path d="M245.816 0c68.262 0 123.6 55.338 123.6 123.6 0 68.262-55.338 123.6-123.6 123.6-48.229 0-90.007-27.624-110.374-67.912l4.573 0c20.026 37.968 59.891 63.849 105.801 63.849 66.019 0 119.537-53.519 119.537-119.537 0-66.019-53.519-119.537-119.537-119.537-45.91 0-85.775 25.881-105.801 63.849l-4.573 0c20.367-40.289 62.145-67.912 110.374-67.912z" fill="#ffffff" stroke="transparent" data-fill-palette-color="tertiary"></path></g></svg></g><defs></defs></svg><rect width="395.52" height="247.2" fill="none" stroke="none" visibility="hidden"></rect></g></svg></g></svg>